<svg width="20" height="21" viewBox="0 0 20 21" fill="none" xmlns="http://www.w3.org/2000/svg">
<path fill-rule="evenodd" clip-rule="evenodd" d="M15.0618 16.3723C13.4937 17.6996 11.4654 18.5 9.25012 18.5C4.27956 18.5 0.250122 14.4706 0.250122 9.5C0.250122 4.52944 4.27956 0.5 9.25012 0.5C14.2207 0.5 18.2501 4.52944 18.2501 9.5C18.2501 11.7153 17.4498 13.7436 16.1224 15.3116L19.7805 18.9697C20.0733 19.2626 20.0733 19.7374 19.7805 20.0303C19.4876 20.3232 19.0127 20.3232 18.7198 20.0303L15.0618 16.3723ZM16.7501 9.5C16.7501 13.6421 13.3923 17 9.25012 17C5.10799 17 1.75012 13.6421 1.75012 9.5C1.75012 5.35786 5.10799 2 9.25012 2C13.3923 2 16.7501 5.35786 16.7501 9.5Z" fill="#687684"/>
</svg>
